<?xml version="1.0" standalone="no"?><!DOCTYPE svg PUBLIC "-//W3C//DTD SVG 1.1//EN" "http://www.w3.org/Graphics/SVG/1.1/DTD/svg11.dtd"><svg t="1634632632852" class="icon" viewBox="0 0 1024 1024" version="1.1" xmlns="http://www.w3.org/2000/svg" p-id="26755" xmlns:xlink="http://www.w3.org/1999/xlink" width="200" height="200"><defs><style type="text/css"></style></defs><path d="M512 1024A512 512 0 1 1 512 0a512 512 0 0 1 0 1024z m-39.36-472.384c-50.688-50.56-99.136-109.184-75.904-132.352 33.216-33.152 62.08-53.568 3.328-126.72-58.816-73.088-98.048-16.96-130.24 15.168-37.12 37.12-1.92 175.296 134.784 311.872 136.768 136.512 275.2 171.712 312.32 134.592 32.192-32.128 88.32-71.232 15.168-130.048-73.152-58.752-93.632-29.824-126.848 3.328-23.232 23.04-81.92-25.28-132.608-75.84z" fill="#5DC77B" p-id="26756"></path></svg>