<?xml version="1.0" standalone="no"?><!DOCTYPE svg PUBLIC "-//W3C//DTD SVG 1.1//EN" "http://www.w3.org/Graphics/SVG/1.1/DTD/svg11.dtd"><svg t="1634635559262" class="icon" viewBox="0 0 1024 1024" version="1.1" xmlns="http://www.w3.org/2000/svg" p-id="27621" xmlns:xlink="http://www.w3.org/1999/xlink" width="64" height="64"><defs><style type="text/css"></style></defs><path d="M0 512c0 282.624 229.376 512 512 512S1024 794.624 1024 512 794.624 0 512 0 0 229.376 0 512z" fill="#5699FA" p-id="27622"></path><path d="M572.416 623.616l13.824-9.216c4.608-4.608 9.216-4.608 18.432-9.216 37.376-18.432 69.632-4.608 111.616 46.592 28.16 32.768 32.768 55.808 23.04 83.968-9.216 18.432-23.04 32.768-46.592 46.592 0 0-18.432 9.216-18.432 13.824-60.416 37.376-195.584-46.592-297.984-190.976-102.4-153.6-125.44-307.2-65.024-344.576l9.216-4.608 9.216-4.608c32.768-18.432 51.2-28.16 74.24-23.04 18.432 0 41.984 18.432 55.808 51.2 37.376 65.024 28.16 97.792-18.432 125.44-4.608 0-13.824 9.216-13.824 9.216-9.216 4.608 9.216 51.2 51.2 116.224 47.104 65.536 84.48 102.4 93.696 93.184z" fill="#FFFFFF" p-id="27623"></path></svg>