<?xml version="1.0" standalone="no"?><!DOCTYPE svg PUBLIC "-//W3C//DTD SVG 1.1//EN" "http://www.w3.org/Graphics/SVG/1.1/DTD/svg11.dtd"><svg t="1634634438234" class="icon" viewBox="0 0 1024 1024" version="1.1" xmlns="http://www.w3.org/2000/svg" p-id="26979" width="128" height="128" xmlns:xlink="http://www.w3.org/1999/xlink"><defs><style type="text/css"></style></defs><path d="M0 512c0 281.6 230.4 512 512 512s512-230.4 512-512S793.6 0 512 0 0 230.4 0 512z" fill="#F6F5F1" p-id="26980"></path><path d="M57.6 512c0 249.6 201.6 454.4 454.4 454.4S966.4 761.6 966.4 512 761.6 57.6 512 57.6 57.6 262.4 57.6 512z" fill="#5CA1E6" p-id="26981"></path><path d="M704 265.6l48 48c25.6 25.6 12.8 57.6 0 96 0 0-64 112-150.4 195.2-89.6 89.6-195.2 147.2-195.2 147.2-35.2 19.2-67.2 25.6-96 0L265.6 704c-12.8-12.8-16-35.2 0-48l96-70.4c16-9.6 35.2-12.8 48 0l28.8 28.8c32-25.6 70.4-54.4 102.4-86.4 28.8-28.8 54.4-60.8 76.8-89.6l-28.8-28.8c-12.8-12.8-9.6-32 0-48l70.4-96c12.8-12.8 32-12.8 44.8 0" fill="#FFFFFF" p-id="26982"></path></svg>