<?xml version="1.0" standalone="no"?><!DOCTYPE svg PUBLIC "-//W3C//DTD SVG 1.1//EN" "http://www.w3.org/Graphics/SVG/1.1/DTD/svg11.dtd"><svg t="1634635856033" class="icon" viewBox="0 0 1024 1024" version="1.1" xmlns="http://www.w3.org/2000/svg" p-id="2511" xmlns:xlink="http://www.w3.org/1999/xlink" width="128" height="128"><defs><style type="text/css"></style></defs><path d="M512 512m-472.615385 0a472.615385 472.615385 0 1 0 945.23077 0 472.615385 472.615385 0 1 0-945.23077 0Z" fill="#F85E65" p-id="2512"></path><path d="M433.624615 508.376615c14.690462-14.690462 147.377231-14.611692 163.879385 1.890462 16.462769 16.462769 9.767385 39.187692 26.742154 56.201846 12.209231 12.209231 130.835692 42.417231 149.228308 24.024615 18.392615-18.392615 29.144615-96.019692-1.457231-126.621538-89.481846-89.521231-421.100308-98.934154-521.452308 1.417846-27.648 27.648-32.925538 92.317538 1.457231 126.700308 11.776 11.776 135.876923-7.758769 152.418461-24.300308 17.053538-17.014154 14.414769-44.583385 29.144616-59.313231z" fill="#FFFFFF" p-id="2513"></path></svg>